<?xml version="1.0" standalone="no"?>
<!DOCTYPE svg PUBLIC "-//W3C//DTD SVG 1.1//EN" "http://www.w3.org/Graphics/SVG/1.1/DTD/svg11.dtd" >
<svg xmlns="http://www.w3.org/2000/svg">
<metadata>
Created by FontForge 20120731 at Mon Jul 31 10:24:07 2017
 By admin
</metadata>
<defs>
<font id="iconfont" horiz-adv-x="1024" >
  <font-face 
    font-family="iconfont"
    font-weight="500"
    font-stretch="normal"
    units-per-em="1024"
    panose-1="2 0 6 3 0 0 0 0 0 0"
    ascent="896"
    descent="-128"
    x-height="792"
    bbox="0 -148 1157 896"
    underline-thickness="0"
    underline-position="0"
    unicode-range="U+0078-E8C6"
  />
<missing-glyph 
 />
    <glyph glyph-name=".notdef" 
 />
    <glyph glyph-name=".notdef" 
 />
    <glyph glyph-name=".null" horiz-adv-x="0" 
 />
    <glyph glyph-name="nonmarkingreturn" horiz-adv-x="341" 
 />
    <glyph glyph-name="x" unicode="x" horiz-adv-x="1001" 
d="M281 543q-27 -1 -53 -1h-83q-18 0 -36.5 -6t-32.5 -18.5t-23 -32t-9 -45.5v-76h912v41q0 16 -0.5 30t-0.5 18q0 13 -5 29t-17 29.5t-31.5 22.5t-49.5 9h-133v-97h-438v97zM955 310v-52q0 -23 0.5 -52t0.5 -58t-10.5 -47.5t-26 -30t-33 -16t-31.5 -4.5q-14 -1 -29.5 -0.5
t-29.5 0.5h-32l-45 128h-439l-44 -128h-29h-34q-20 0 -45 1q-25 0 -41 9.5t-25.5 23t-13.5 29.5t-4 30v167h911zM163 247q-12 0 -21 -8.5t-9 -21.5t9 -21.5t21 -8.5q13 0 22 8.5t9 21.5t-9 21.5t-22 8.5zM316 123q-8 -26 -14 -48q-5 -19 -10.5 -37t-7.5 -25t-3 -15t1 -14.5
t9.5 -10.5t21.5 -4h37h67h81h80h64h36q23 0 34 12t2 38q-5 13 -9.5 30.5t-9.5 34.5q-5 19 -11 39h-368zM336 498v228q0 11 2.5 23t10 21.5t20.5 15.5t34 6h188q31 0 51.5 -14.5t20.5 -52.5v-227h-327z" />
    <glyph glyph-name="huanyipi" unicode="&#xe639;" 
d="M704 492h192v192h-64v-79q-46 72 -134 107.5t-199 35.5q-121 0 -223 -60t-160.5 -163t-58.5 -225q0 -91 36.5 -174t97 -143t144 -95.5t174.5 -35.5q108 0 203 49t158 133l-52 36q-53 -71 -133.5 -112.5t-172.5 -41.5q-105 0 -193.5 51.5t-139.5 140t-51 192.5t51.5 193.5
t140 141t192.5 50.5q31 0 58.5 -3.5t47.5 -8t40.5 -14t33 -15.5t30 -20t25.5 -21t26 -23.5t25 -23.5h-94v-64zM858 540v-2h-2z" />
    <glyph glyph-name="xiangji" unicode="&#xe629;" horiz-adv-x="1114" 
d="M557 190v0q55 0 94 40t39 97t-39 97.5t-94.5 40.5t-94.5 -40.5t-39 -97.5t39 -97t95 -40v0zM557 145v0q-74 0 -126.5 53.5t-52.5 129t52.5 128.5t126 53t126 -53t52.5 -128.5t-52.5 -129t-125.5 -53.5v0zM557 43v0v0q116 0 197 82.5t81 202t-81 202t-197.5 82.5
t-197.5 -82.5t-81 -202t81 -202t198 -82.5v0zM557 -2v0q-136 0 -229.5 95.5t-93.5 233.5t93.5 233.5t229 95.5t229 -95.5t93.5 -233.5t-93.5 -233.5t-228.5 -95.5v0zM423 867v0l-100 -114l-13 -15h-21h-178q-27 0 -46.5 -20.5t-19.5 -49.5v-682q0 -29 19.5 -49t46.5 -20h891
q27 0 47 20t20 49v682q0 29 -20 49.5t-47 20.5h-178h-20l-14 15l-100 114l33 -16h-333zM390 896v0h333l101 -114h178q46 0 78.5 -33.5t32.5 -80.5v-682q0 -47 -32.5 -80.5t-78.5 -33.5h-891q-46 0 -78.5 33.5t-32.5 80.5v682q0 47 32.5 80.5t78.5 33.5h178z" />
    <glyph glyph-name="iconxiangzuo" unicode="&#xe62d;" 
d="M669 33q-18 0 -31 13l-318 324q-13 13 -13 31.5t13 31.5l318 324q13 13 31 13t31 -13t13 -31.5t-13 -31.5l-288 -292l288 -293q13 -13 13 -31.5t-13 -31.5t-31 -13v0zM669 33z" />
    <glyph glyph-name="renyuan" unicode="&#xe60d;" 
d="M982 40v7q0 69 -87 137t-222 97q67 77 67 168v178q0 104 -65 173.5t-163 69.5t-163 -69.5t-65 -173.5v-178q0 -112 59 -175q-125 -32 -212 -94.5t-87 -133.5q0 -1 -1 -3.5t-1 -3.5q-5 -50 34 -70q64 -33 179.5 -52t256 -19t256 19t179.5 52q40 21 35 71zM345 449v178
q0 77 47.5 129.5t119.5 52.5t119.5 -52.5t47.5 -129.5v-178q0 -78 -47.5 -130t-119.5 -52t-119.5 52t-47.5 130zM919 24q-57 -30 -166.5 -47.5t-241 -17.5t-241.5 17.5t-167 47.5q-1 0 -2 0.5l-1 0.5q0 2 1 8q1 8 1 13q0 45 87 102.5t213 78.5q45 -21 96 -21q55 0 103 24
q68 -9 129.5 -31t102 -49t64.5 -54.5t24 -48.5q0 -5 0.5 -13t1.5 -8q0 -1 -4 -2z" />
    <glyph glyph-name="fenlei-copy-copy" unicode="&#xe600;" 
d="M284 357h172q9 0 16.5 -7t7.5 -17q-1 -101 -1 -338q0 -13 -8 -19q-5 -4 -9 -4q-5 -1 -14 -1h-174h-161q-15 0 -20 8q-4 6 -5 11v12v331q0 10 7.5 17t16.5 7h172zM283 11h148q5 0 6.5 1.5t1.5 7.5v283v9q-1 6 -7 6h-11h-275h-9q-10 0 -10 -10v-288q0 -5 2 -7t7 -2h147v0z
M282 444h-171q-10 0 -16.5 6.5t-6.5 16.5v340q0 17 14 21q2 1 6 1h351q8 0 14 -6t6 -13v-14v-324q0 -14 -4.5 -19.5t-12.5 -7.5q-3 -1 -7 -1h-173zM284 791v0h-141h-4h-5q-6 0 -7 -6v-6v-97v-95v-46v-46q0 -11 10 -11h294q7 0 8 6v6v281v8q-1 6 -7 6h-148zM751 829h166
q11 0 15 -1q11 -3 12 -14q0 -1 1 -9.5t1 -12.5v-321q0 -20 -15 -26q-3 -1 -6 -1h-349q-21 0 -21 21v344q0 20 22 20h4h4h166zM749 791v0h-137h-5.5h-5.5q-8 0 -8 -7v-2.5v-2.5v-284q0 -6 2 -8t8 -3h3h289q6 0 8.5 2.5t2.5 9v21.5v23v127v112q0 8 -2 10t-9 2h-146zM534 170
q2 34 11 60q8 25 13 35q8 14 20 30q15 18 29 30q10 9 29 20q14 8 32 16q12 5 25 7q38 7 51 5q35 -3 45 -6q22 -6 44 -17q19 -10 39 -28q18 -15 32 -36q6 -8 16 -27q7 -15 10 -22q6 -23 8 -40t2 -37q-1 -25 -6 -39q-2 -4 -4.5 -13t-4.5 -13q-3 -9 -7 -16q-7 -12 -19 -29
q-3 -5 1 -9q29 -28 46 -45q24 -23 28.5 -28t3 -12.5t-6.5 -12.5q-5 -4 -13 -3.5t-13 4.5q-9 9 -29.5 29t-31.5 30q-6 6 -12 10q-4 4 -10 -1q-30 -25 -74 -37q-24 -7 -66 -6q-24 1 -48 9q-28 10 -44 22q-25 19 -35 27q-6 6 -19 22q-9 13 -17 26q-3 5 -8 18q-4 11 -7.5 22
t-4.5 19q0 3 -5 36v0zM900 171q1 67 -46.5 114.5t-112.5 48.5q-70 2 -120 -48.5t-47 -122.5q3 -64 51.5 -111.5t120.5 -43.5q62 2 108 48t46 115z" />
    <glyph glyph-name="xiangshangjiantou-copy" unicode="&#xe601;" 
d="M140 831h741v-52h-741v52zM155 372l36 -36l294 293v-693h51v695l294 -293l36 36l-354 354z" />
    <glyph glyph-name="weibiaoti1" unicode="&#xe68e;" 
d="M437 643q-25 0 -43 -9t-18 -21q0 -7 4 -11h112q4 8 4 11q0 13 -17.5 21.5t-41.5 8.5zM398 127h60q6 0 10.5 4.5t4.5 10.5t-4.5 10.5t-10.5 4.5h-60q-15 0 -15 16v76q0 6 -5 10.5t-11 4.5t-10.5 -4.5t-4.5 -10.5v-76q1 -19 13 -32.5t33 -13.5zM586 643q-24 0 -42 -9
t-18 -21q0 -3 4 -11h112q3 6 3 11q1 13 -16.5 21.5t-42.5 8.5zM512 893q-104 0 -198.5 -40.5t-163 -108.5t-108.5 -163t-40 -199t40 -198.5t108.5 -162.5t163 -108.5t198.5 -40.5t198.5 40.5t163 108.5t108.5 162.5t40 198.5t-40.5 199t-108.5 163t-162.5 108.5t-198.5 40.5
zM729 177q0 -51 -35 -86.5t-84 -35.5h-196q-49 0 -84 35.5t-35 86.5v185h434v-185zM803 465q0 -25 -14.5 -45t-38.5 -27h-224v209h-29v-209h-224q-24 7 -38.5 26.5t-14.5 45.5v61q0 31 21.5 54t52.5 23h54q-1 4 -1 11q0 28 27 44.5t63 16.5q49 0 74 -27q26 27 74 27
q36 0 63 -16.5t27 -44.5q0 -2 -0.5 -6t-0.5 -5h54q31 0 52.5 -22.5t21.5 -54.5v-61h1z" />
    <glyph glyph-name="xiangxia" unicode="&#xe615;" horiz-adv-x="1846" 
d="M922 326l-177 177l-31 -31l208 -208l209 208l-32 31zM922 326z" />
    <glyph glyph-name="wode" unicode="&#xe602;" 
d="M944 77q-36 84 -101 148.5t-149 100.5q-28 12 -57 20q44 21 79 56q85 85 85 205t-84.5 204.5t-204.5 84.5t-204.5 -84.5t-84.5 -204.5t85 -205q35 -35 79 -56q-29 -8 -57 -20q-84 -36 -149 -100.5t-101 -148.5q-36 -87 -36 -183q0 -9 6.5 -15.5t15.5 -6.5t15.5 6.5
t6.5 15.5q0 113 55 209.5t149.5 154t206.5 60.5h13h13q112 -3 206.5 -60.5t149.5 -154t55 -209.5q0 -9 6.5 -15.5t15.5 -6.5t15.5 6.5t6.5 15.5q0 96 -36 183zM267 607q0 101 72 173t173 72t173 -72t72 -173q0 -98 -67.5 -169t-165.5 -76q-6 1 -12 1t-12 -1q-98 5 -165.5 76
t-67.5 169z" />
    <glyph glyph-name="shouye" unicode="&#xe8c6;" 
d="M930 444l-339 352q-32 34 -79 34t-79 -34l-339 -352q-16 -17 -23 -34.5t-6 -28t4 -18.5q16 -35 58 -35h50v-271q0 -47 30.5 -83t76.5 -36h144v287v11.5v11t1 8.5t2.5 7.5l4.5 4.5t7.5 3.5t11.5 0.5h114q7 0 11.5 -0.5t7.5 -3.5t5 -4.5t2.5 -7.5t0.5 -8.5v-11v-11.5v-287
h144q46 0 76.5 35.5t30.5 83.5v271h50q42 0 58 35q3 8 4 18.5t-6 28t-23 34.5zM897 384h-106v-327q0 -24 -14.5 -43.5t-36.5 -19.5h-88v231q0 103 -83 103h-114q-83 0 -83 -103v-232h-88q-22 0 -36.5 20t-14.5 44v327h-106l-1 2l-1 2q9 16 10 17l339 352q16 17 39 17
q20 0 37 -17l339 -351q2 -3 10 -18l-1 -2z" />
    <glyph glyph-name="pinglun" unicode="&#xe659;" 
d="M334 379zM274 379.5q0 -24.5 17.5 -42t42 -17.5t42 17.5t17.5 42t-17.5 42t-42 17.5t-42 -17.5t-17.5 -42zM809 -35v-1v1zM512 736q-113 0 -209 -47.5t-151.5 -130t-55.5 -179.5q0 -74 28.5 -138.5t83 -113t140.5 -76.5t194 -28q251 -50 267 -58q2 16 2 167q55 49 86 113
t31 134q0 97 -55.5 179.5t-151.5 130t-209 47.5zM750 161v-120q-174 41 -179 41q-99 0 -179 23.5t-131 64t-78.5 94t-27.5 115.5q0 81 48 149.5t130 108.5t179 40t179 -40t129.5 -108.5t47.5 -149.5q0 -129 -118 -218zM512 379zM452 379.5q0 -24.5 17.5 -42t42.5 -17.5
t42 17.5t17 42t-17 42t-42 17.5t-42.5 -17.5t-17.5 -42zM690 379zM631 379.5q0 -24.5 17.5 -42t42 -17.5t42 17.5t17.5 42t-17.5 42t-42 17.5t-42 -17.5t-17.5 -42z" />
    <glyph glyph-name="mima" unicode="&#xe651;" 
d="M773 -64h-522q-46 0 -78 35t-32 84v289q0 49 32 84t78 35h522q46 0 78 -35t32 -84v-289q0 -49 -32 -84t-78 -35zM251 420q-29 0 -50 -22.5t-21 -53.5v-289q0 -32 21 -54.5t50 -22.5h522q29 0 50 22.5t21 54.5v289q0 31 -21 53.5t-50 22.5h-522zM511 297
q-25 0 -42.5 -17.5t-17.5 -42.5q0 -27 20 -45v-55q0 -17 11.5 -28.5t28.5 -11.5t28.5 11.5t11.5 28.5v55q20 18 20 45q0 25 -17.5 42.5t-42.5 17.5zM735 542v51q0 26 -6 50q-16 69 -55 116q-28 34 -66 52q-43 21 -97 21h-1q-49 0 -88.5 -16.5t-64 -44.5t-38.5 -53t-22 -53
q-12 -38 -12 -79l1 -154h42l-1 154q0 35 10 66q8 27 20.5 49t32.5 43t51 33.5t69 12.5h1q43 0 76.5 -15.5t53 -41.5t30.5 -49.5t17 -50.5q4 -19 4 -40v-52q0 -8 6.5 -14.5t15 -6.5t15 6.5t6.5 14.5v1z" />
    <glyph glyph-name="zuobiao1" unicode="&#xe61e;" 
d="M747 171q-13 3 -23.5 -4.5t-13 -21t5 -24t20.5 -12.5q43 -9 77.5 -20.5t51.5 -22.5t17 -18q0 -4 -18 -18q-29 -18 -77 -32q-111 -32 -273 -32q-166 0 -274 32q-48 14 -77 32q-19 13 -19 18q0 7 15.5 16.5t46.5 21t71 20.5q13 2 20 13.5t4 24.5q-1 13 -12.5 20.5
t-24.5 3.5q-184 -39 -184 -120q0 -44 58 -77t155.5 -50t218.5 -17t218.5 17t155.5 50t58 77q0 84 -197 123zM270 418l216 -346q8 -16 26 -16t26 16l216 346v0q47 72 47 157q0 120 -84.5 204.5t-204.5 84.5t-204.5 -84.5t-84.5 -204.5q0 -86 47 -157v0zM512 707
q55 0 93.5 -38.5t38.5 -93t-38.5 -93t-93.5 -38.5t-93.5 38.5t-38.5 93t38.5 93t93.5 38.5z" />
    <glyph glyph-name="tuichu" unicode="&#xe501;" 
d="M953 401l-185 185q-7 6 -16.5 6t-16.5 -6l-37 -38q-7 -7 -7 -16.5t7 -16.5l81 -81h-372q-9 0 -16 -7t-7 -16v-53q0 -10 7 -16.5t16 -6.5h372l-82 -82q-6 -7 -6 -16.5t6 -16.5l38 -37q6 -7 16 -7t17 7l147 148v0l38 37q6 7 6 16.5t-6 16.5v0zM634 831h-500
q-29 0 -49 -20.5t-20 -48.5v-755q0 -29 20 -49.5t49 -20.5h500q29 0 49.5 20.5t20.5 49.5v98q0 9 -7 16t-17 7h-50q-9 0 -16 -7t-7 -16v-37q0 -26 -4.5 -30.5t-30.5 -4.5h-377q-26 0 -30.5 4.5t-4.5 30.5v633q0 26 4.5 30.5t30.5 4.5h377q26 0 30.5 -4.5t4.5 -29.5v-39
q0 -9 7 -16t16 -7h50q10 0 17 7t7 16v99q0 28 -20.5 48.5t-49.5 20.5v0zM634 831z" />
    <glyph glyph-name="gouwuche" unicode="&#xe66a;" horiz-adv-x="1365" 
d="M692.5 861q-94.5 0 -180.5 -37t-148 -99t-99 -148t-37 -180.5t37 -180.5t99 -148t148 -99t180.5 -37t180.5 37t148 99t99 148t37 180.5t-37 180.5t-99 148t-148 99t-180.5 37zM611 146q-18 0 -30.5 12.5t-12.5 30.5t12.5 30.5t30.5 12.5t30.5 -12.5t12.5 -30.5
t-12.5 -30.5t-30.5 -12.5zM825 146q-18 0 -30.5 12.5t-12.5 30.5t12.5 30.5t30.5 12.5t30.5 -12.5t12.5 -30.5t-12.5 -30.5t-30.5 -12.5zM868 260h-285l-75 223l-43 43h-51q-11 0 -15.5 10.5t-0.5 21.5t16 11h65l57 -57h392z" />
    <glyph glyph-name="like_fill" unicode="&#xe60f;" 
d="M736 768q-102 0 -176 -70q-6 -5 -48 -48l-47 47q-74 71 -177 71q-106 0 -181 -75t-75 -181q0 -100 76 -182l317 -321q42 -41 87 -41t87 42l316 320l3 2q25 31 37.5 49.5t24.5 54t12 76.5q0 106 -75 181t-181 75z" />
    <glyph glyph-name="magnifier" unicode="&#xe69d;" 
d="M750 697q-75 75 -175 101.5t-200.5 0t-175.5 -101.5t-101.5 -175t0 -200.5t101.5 -175.5q72 -72 168 -99.5t192.5 -6t172.5 88.5l172 -172l36 35l-173 172q67 75 88.5 172t-6 193t-99.5 168zM790 294q-26 -64 -75 -113t-113 -75q-61 -24 -127.5 -24t-128.5 24
q-63 26 -112 75t-75 113q-25 61 -25 127.5t25 128.5q26 63 75 112t112 75q62 25 128.5 25t127.5 -25q64 -26 113 -75t75 -112q24 -62 24 -128.5t-24 -127.5z" />
    <glyph glyph-name="shouye-xianshiqianggou" unicode="&#xe641;" 
d="M504 349h-122v-32h155v190h-33v-158zM512 896q-139 0 -257 -68.5t-186.5 -186.5t-68.5 -257t68.5 -257t186.5 -186.5t257 -68.5t257 68.5t186.5 186.5t68.5 257t-68.5 257t-186.5 186.5t-257 68.5zM265 608q59 46 70 50q7 4 18 4t19 -2l8 -2l37 -32l-74 -43l-59 -61
l-26 36q-8 24 7 50zM711 121l-22 -21l-56 50q-59 -29 -118 -29q-70 0 -126 32l-55 -53l-23 21l52 50q-47 35 -73 85.5t-27 107.5q0 100 73.5 172t178.5 72q103 0 177 -71t74 -173q0 -61 -28 -113t-79 -87zM774 558l-26 -36l-55 61l-74 43l37 32q33 10 44 0l70 -58
q1 -2 2.5 -6.5t3.5 -17t-2 -18.5z" />
    <glyph glyph-name="quyuchaxun" unicode="&#xe64b;" 
d="M907 130l-93 -90l-168 178l-94 -135l-67 379l395 -64l-140 -90zM855 726h-686v-686h316v-105h-422v897h897v-317h-105v211z" />
  </font>
</defs>
</svg>
